<svg width="91" height="91" viewBox="0 0 91 91" fill="none" xmlns="http://www.w3.org/2000/svg">
<path d="M18.9583 11.375C14.7702 11.375 11.375 14.7702 11.375 18.9583V26.5417C11.375 30.7298 14.7702 34.125 18.9583 34.125H34.125C38.3132 34.125 41.7083 30.7298 41.7083 26.5417V18.9583C41.7083 14.7702 38.3132 11.375 34.125 11.375H18.9583Z" fill="#111928"/>
<path d="M72.0417 79.625C76.2298 79.625 79.625 76.2298 79.625 72.0417V64.4583C79.625 60.2702 76.2298 56.875 72.0417 56.875H56.875C52.6868 56.875 49.2917 60.2702 49.2917 64.4583V72.0417C49.2917 76.2298 52.6868 79.625 56.875 79.625H72.0417Z" fill="#111928"/>
<path d="M18.9583 41.7083C14.7702 41.7083 11.375 45.1035 11.375 49.2917V72.0417C11.375 76.2298 14.7702 79.625 18.9583 79.625H34.125C38.3132 79.625 41.7083 76.2298 41.7083 72.0417V49.2917C41.7083 45.1035 38.3132 41.7083 34.125 41.7083H18.9583Z" fill="#111928"/>
<path d="M72.0417 49.2917C76.2298 49.2917 79.625 45.8965 79.625 41.7083V18.9583C79.625 14.7702 76.2298 11.375 72.0417 11.375H56.875C52.6868 11.375 49.2917 14.7702 49.2917 18.9583V41.7083C49.2917 45.8965 52.6868 49.2917 56.875 49.2917L72.0417 49.2917Z" fill="#111928"/>
</svg>
