<svg width="100" height="100" viewBox="0 0 100 100" fill="none" xmlns="http://www.w3.org/2000/svg">
<path d="M45.1221 20.8333C43.4061 15.9784 38.7759 12.5 33.3333 12.5C27.8908 12.5 23.2606 15.9784 21.5446 20.8333L16.6667 20.8333C14.3655 20.8333 12.5 22.6988 12.5 25C12.5 27.3012 14.3655 29.1667 16.6667 29.1667H21.5446C23.2606 34.0216 27.8908 37.5 33.3333 37.5C38.7759 37.5 43.4061 34.0216 45.1221 29.1667L83.3333 29.1667C85.6345 29.1667 87.5 27.3012 87.5 25C87.5 22.6988 85.6345 20.8333 83.3333 20.8333L45.1221 20.8333Z" fill="#111928"/>
<path d="M16.6667 45.8333L54.8779 45.8333C56.5939 40.9784 61.2241 37.5 66.6667 37.5C72.1092 37.5 76.7394 40.9784 78.4554 45.8333H83.3333C85.6345 45.8333 87.5 47.6988 87.5 50C87.5 52.3012 85.6345 54.1667 83.3333 54.1667H78.4554C76.7394 59.0216 72.1092 62.5 66.6667 62.5C61.2241 62.5 56.5939 59.0216 54.8779 54.1667L16.6667 54.1667C14.3655 54.1667 12.5 52.3012 12.5 50C12.5 47.6988 14.3655 45.8333 16.6667 45.8333Z" fill="#111928"/>
<path d="M21.5446 70.8333L16.6667 70.8333C14.3655 70.8333 12.5 72.6988 12.5 75C12.5 77.3012 14.3655 79.1667 16.6667 79.1667H21.5446C23.2606 84.0216 27.8908 87.5 33.3333 87.5C38.7759 87.5 43.4061 84.0216 45.1221 79.1667L83.3333 79.1667C85.6345 79.1667 87.5 77.3012 87.5 75C87.5 72.6988 85.6345 70.8333 83.3333 70.8333L45.1221 70.8333C43.4061 65.9784 38.7759 62.5 33.3333 62.5C27.8908 62.5 23.2606 65.9784 21.5446 70.8333Z" fill="#111928"/>
</svg>
